Coordinates
version=1
nRows=34
nColumns=38
inDegrees=no

Units are S.I. units (second, meters, Newtons, ...)
If the header above contains a line with 'inDegrees', this indicates whether rotational values are in degrees (yes) or radians (no).

endheader
time	pelvis_tilt	pelvis_list	pelvis_rotation	pelvis_tx	pelvis_ty	pelvis_tz	hip_flexion_r	hip_adduction_r	hip_rotation_r	knee_angle_r	ankle_angle_r	subtalar_angle_r	mtp_angle_r	hip_flexion_l	hip_adduction_l	hip_rotation_l	knee_angle_l	ankle_angle_l	subtalar_angle_l	mtp_angle_l	lumbar_extension	lumbar_bending	lumbar_rotation	arm_flex_r	arm_add_r	arm_rot_r	elbow_flex_r	pro_sup_r	wrist_flex_r	wrist_dev_r	arm_flex_l	arm_add_l	arm_rot_l	elbow_flex_l	pro_sup_l	wrist_flex_l	wrist_dev_l
0.98	-3.12323	1.07953	1.52794	0.806577	0.484377	0.987632	0.235619	-0.0335645	-0.14077	0.488107	-0.239996	0	0	0.811561	-0.0248708	-0.140915	0.165744	-0.327516	0	0	0.503147	-0.0316947	0.101798	-0.0977702	-0.225167	0.10445	0.707245	1.5708	0	0	-0.264293	-0.307844	0.752595	0.450479	0.964005	0	0
0.99	-3.13954	1.0744	1.54506	0.80801	0.469518	0.98746	0.260413	-0.0510387	-0.13374	0.542267	-0.288298	0	0	0.813737	-0.016782	-0.121958	0.190276	-0.310437	0	0	0.512446	-0.0431403	0.0990684	-0.0955385	-0.217925	0.1122	0.670025	1.5708	0	0	-0.26922	-0.311609	0.744093	0.4569	0.955949	0	0
1	3.12439	1.07038	1.56547	0.809453	0.455141	0.987652	0.286226	-0.0686792	-0.122903	0.595631	-0.338322	0	0	0.815654	-0.00628093	-0.107352	0.220258	-0.287889	0	0	0.518642	-0.0560544	0.096967	-0.092085	-0.210255	0.119473	0.631737	1.5708	0	0	-0.270906	-0.314871	0.73562	0.461926	0.948103	0	0
1.01	3.10326	1.06705	1.5881	0.810888	0.441251	0.988134	0.313335	-0.0856644	-0.108296	0.648364	-0.389908	0	0	0.817316	0.00595639	-0.0978837	0.252367	-0.261684	0	0	0.522572	-0.0697587	0.0957501	-0.0876907	-0.202582	0.127475	0.592215	1.5708	0	0	-0.269064	-0.31787	0.72915	0.465452	0.939343	0	0
1.02	3.0823	1.06572	1.60987	0.812219	0.427726	0.98884	0.340076	-0.100671	-0.0904735	0.700342	-0.44257	0	0	0.817253	0.0184045	-0.0923361	0.285085	-0.234932	0	0	0.522874	-0.0824759	0.0961476	-0.0831192	-0.195565	0.13596	0.553385	1.5708	0	0	-0.26309	-0.321042	0.727505	0.467734	0.93088	0	0
1.03	3.06278	1.06755	1.62864	0.81344	0.414435	0.989738	0.365024	-0.11332	-0.0721103	0.751223	-0.498861	0	0	0.812787	0.0294799	-0.0891586	0.314418	-0.210686	0	0	0.518353	-0.0927565	0.0982971	-0.078759	-0.189997	0.144873	0.517078	1.5708	0	0	-0.253318	-0.323759	0.729761	0.469204	0.922077	0	0
1.04	3.04448	1.07284	1.64401	0.814452	0.401231	0.990916	0.387619	-0.124039	-0.0552498	0.800335	-0.55543	0	0	0.802001	0.0382373	-0.0889458	0.337192	-0.190215	0	0	0.509081	-0.100503	0.102075	-0.0737263	-0.185571	0.155976	0.481825	1.5708	0	0	-0.240447	-0.325887	0.734873	0.469619	0.913113	0	0
1.05	3.02763	1.08004	1.65558	0.815179	0.388052	0.992392	0.409328	-0.132803	-0.0394069	0.848118	-0.597084	0	0	0.785852	0.0443408	-0.0926724	0.352418	-0.173419	0	0	0.497309	-0.105646	0.107063	-0.06833	-0.181685	0.169323	0.447274	1.5708	0	0	-0.225847	-0.327159	0.740747	0.468872	0.905909	0	0
1.06	3.01369	1.08662	1.6621	0.815603	0.374855	0.994062	0.432597	-0.139128	-0.024255	0.894766	-0.61703	0	0	0.767151	0.047716	-0.0990464	0.360729	-0.157949	0	0	0.487097	-0.107761	0.11218	-0.0625889	-0.178032	0.186665	0.412044	1.5708	0	0	-0.211476	-0.32752	0.7473	0.466996	0.901663	0	0
1.07	3.00335	1.09125	1.66249	0.815688	0.361773	0.995791	0.458801	-0.142369	-0.00849189	0.9399	-0.611584	0	0	0.747937	0.0478924	-0.107064	0.363344	-0.145632	0	0	0.480021	-0.106418	0.117916	-0.0578144	-0.174992	0.206672	0.378565	1.5708	0	0	-0.19814	-0.327005	0.752593	0.464875	0.902008	0	0
1.08	2.99771	1.09604	1.6583	0.815705	0.348871	0.997691	0.484808	-0.142972	0.00504091	0.98322	-0.582633	0	0	0.726915	0.0463519	-0.1141	0.361068	-0.133873	0	0	0.473606	-0.102089	0.120403	-0.0520959	-0.173308	0.235452	0.345854	1.5708	0	0	-0.18661	-0.325769	0.754439	0.464019	0.906379	0	0
1.09	2.99876	1.10202	1.65122	0.81594	0.336279	0.999816	0.508711	-0.142002	0.0120434	1.02443	-0.535787	0	0	0.704209	0.0444505	-0.116117	0.355915	-0.124346	0	0	0.465564	-0.0956203	0.116745	-0.0464188	-0.173264	0.270761	0.316965	1.5708	0	0	-0.176173	-0.323648	0.750323	0.46461	0.915492	0	0
1.1	3.00119	1.10489	1.64306	0.816131	0.323757	1.00196	0.535588	-0.14082	0.017103	1.06233	-0.484159	0	0	0.683765	0.041433	-0.123026	0.347776	-0.119301	0	0	0.462516	-0.0884954	0.112094	-0.043524	-0.173506	0.307218	0.292035	1.5708	0	0	-0.168737	-0.321823	0.740731	0.4673	0.928923	0	0
1.11	3.00586	1.10418	1.63426	0.81642	0.311404	1.00406	0.565685	-0.139277	0.0200533	1.09567	-0.432568	0	0	0.667136	0.037268	-0.135907	0.33828	-0.118129	0	0	0.464824	-0.0809514	0.105424	-0.0432715	-0.174054	0.3441	0.271011	1.5708	0	0	-0.164317	-0.320387	0.725663	0.472427	0.946544	0	0
1.12	3.01171	1.10302	1.62699	0.816998	0.299044	1.00634	0.594697	-0.138121	0.0200104	1.12225	-0.385322	0	0	0.65041	0.0344319	-0.145891	0.326823	-0.119355	0	0	0.468303	-0.073936	0.0961063	-0.0450212	-0.175166	0.380212	0.253978	1.5708	0	0	-0.161456	-0.318761	0.70593	0.478976	0.968224	0	0
1.13	3.01897	1.10207	1.621	0.817803	0.286674	1.00881	0.621603	-0.137336	0.0173827	1.142	-0.344167	0	0	0.633577	0.0327317	-0.153664	0.315681	-0.122842	0	0	0.47169	-0.0674542	0.0843962	-0.0484087	-0.176847	0.413408	0.240984	1.5708	0	0	-0.159743	-0.316813	0.681432	0.48705	0.992917	0	0
1.14	3.0275	1.10144	1.61558	0.818679	0.274373	1.01141	0.646933	-0.136673	0.0127689	1.1554	-0.311762	0	0	0.616916	0.0313767	-0.16109	0.306032	-0.1271	0	0	0.474496	-0.0613676	0.0717187	-0.0533418	-0.178681	0.439451	0.231992	1.5708	0	0	-0.15809	-0.315703	0.657027	0.497435	1.0162	0	0
1.15	3.03714	1.10121	1.61015	0.819552	0.26214	1.01408	0.670533	-0.135599	0.00710469	1.16255	-0.282715	0	0	0.600022	0.0300844	-0.167644	0.297164	-0.13197	0	0	0.477177	-0.0555134	0.0578682	-0.0590068	-0.180755	0.462424	0.22576	1.5708	0	0	-0.158081	-0.31473	0.627871	0.510279	1.0411	0	0
1.16	3.04862	1.10273	1.60438	0.820497	0.249805	1.0169	0.690521	-0.134108	0.000848135	1.16349	-0.261096	0	0	0.581054	0.0287614	-0.171709	0.287898	-0.136117	0	0	0.477656	-0.0495028	0.0439425	-0.0661197	-0.182898	0.474209	0.222737	1.5708	0	0	-0.156485	-0.314856	0.605337	0.524328	1.05861	0	0
1.17	3.06303	1.1033	1.59664	0.821406	0.237471	1.0196	0.709985	-0.131598	-0.00704849	1.15879	-0.233722	0	0	0.562995	0.026556	-0.172093	0.277977	-0.14184	0	0	0.48009	-0.042823	0.027781	-0.0736606	-0.185314	0.484643	0.221243	1.5708	0	0	-0.159893	-0.313012	0.566932	0.5413	1.08632	0	0
1.18	3.07821	1.10377	1.5873	0.822184	0.225249	1.02221	0.728649	-0.127728	-0.013909	1.14905	-0.213788	0	0	0.54497	0.0230356	-0.174018	0.267391	-0.146916	0	0	0.481679	-0.0355472	0.0135937	-0.082097	-0.18756	0.484418	0.222099	1.5708	0	0	-0.161626	-0.313477	0.538565	0.560885	1.10434	0	0
1.19	3.09257	1.10423	1.57781	0.822805	0.213024	1.02471	0.746115	-0.123183	-0.0194002	1.13478	-0.192328	0	0	0.526414	0.0190852	-0.176437	0.255562	-0.153459	0	0	0.482859	-0.0284576	0.000255371	-0.0907536	-0.189706	0.479491	0.224544	1.5708	0	0	-0.164701	-0.313662	0.506964	0.582154	1.12295	0	0
1.2	3.10566	1.10394	1.56735	0.823181	0.201004	1.027	0.76377	-0.117503	-0.0236055	1.1161	-0.1692	0	0	0.508376	0.0144223	-0.179671	0.243178	-0.161023	0	0	0.483857	-0.0210358	-0.0108494	-0.0993507	-0.191698	0.469064	0.228555	1.5708	0	0	-0.169121	-0.311828	0.467841	0.604249	1.14674	0	0
1.21	3.11875	1.10279	1.55653	0.823536	0.189278	1.02902	0.781442	-0.111208	-0.0278166	1.09267	-0.149109	0	0	0.4917	0.00930136	-0.184749	0.231421	-0.167867	0	0	0.484487	-0.013231	-0.0209869	-0.107502	-0.193525	0.452763	0.233541	1.5708	0	0	-0.172392	-0.309448	0.430451	0.626728	1.1679	0	0
1.22	3.13389	1.10041	1.5457	0.823968	0.177511	1.03076	0.79798	-0.104936	-0.0342003	1.06355	-0.131886	0	0	0.476381	0.00406233	-0.187863	0.220067	-0.173852	0	0	0.486487	-0.00534451	-0.032443	-0.116134	-0.195149	0.435001	0.23862	1.5708	0	0	-0.17498	-0.308637	0.401197	0.649721	1.18378	0	0
1.23	-3.13572	1.09715	1.53623	0.824342	0.165807	1.03215	0.813904	-0.0987744	-0.0397003	1.02937	-0.114106	0	0	0.461934	-0.000574561	-0.191766	0.20854	-0.180071	0	0	0.48906	0.00184304	-0.042503	-0.125174	-0.196399	0.415142	0.244477	1.56782	0	0	-0.177575	-0.307773	0.372741	0.673593	1.19893	0	0
1.24	-3.12341	1.09319	1.52826	0.824671	0.154165	1.03317	0.828973	-0.0930085	-0.0447379	0.990314	-0.0962598	0	0	0.448295	-0.0046726	-0.195885	0.196906	-0.186495	0	0	0.492166	0.00828813	-0.0517064	-0.134461	-0.197389	0.394865	0.250691	1.56147	0	0	-0.179974	-0.307332	0.346561	0.698392	1.21351	0	0
1.25	-3.1124	1.08868	1.5215	0.824919	0.14261	1.03384	0.84297	-0.087381	-0.0488889	0.945926	-0.0798676	0	0	0.435592	-0.00839686	-0.200365	0.185851	-0.192225	0	0	0.495718	0.0142223	-0.0599127	-0.143712	-0.198195	0.374834	0.25731	1.55246	0	0	-0.181999	-0.307461	0.323431	0.723609	1.22684	0	0
1.26	-3.10237	1.08337	1.51609	0.825131	0.131107	1.03412	0.855634	-0.0819455	-0.0526884	0.895824	-0.0661669	0	0	0.424226	-0.0117226	-0.204424	0.17572	-0.196348	0	0	0.500149	0.0195398	-0.0676067	-0.153023	-0.198838	0.356249	0.264161	1.54226	0	0	-0.183553	-0.308273	0.303735	0.748777	1.23905	0	0
1.27	-3.09413	1.07737	1.51267	0.825328	0.119677	1.03402	0.866889	-0.077141	-0.0559085	0.839779	-0.0571609	0	0	0.414087	-0.0142795	-0.207695	0.16651	-0.199084	0	0	0.505296	0.0236835	-0.0746584	-0.161942	-0.19943	0.342151	0.270354	1.53378	0	0	-0.184344	-0.310311	0.288342	0.773929	1.24938	0	0
1.28	-3.08801	1.07058	1.51115	0.825501	0.108301	1.03352	0.876579	-0.0729649	-0.0585164	0.777308	-0.0524776	0	0	0.405175	-0.0160527	-0.210201	0.158147	-0.201404	0	0	0.511314	0.0268547	-0.0809837	-0.170468	-0.199829	0.330694	0.276038	1.52595	0	0	-0.184911	-0.312792	0.27518	0.798891	1.25793	0	0
1.29	-3.08284	1.06456	1.51108	0.82565	0.096809	1.03271	0.882935	-0.0698048	-0.0617098	0.708835	-0.0525526	0	0	0.395989	-0.0174336	-0.211785	0.151326	-0.203093	0	0	0.516569	0.0291826	-0.0875218	-0.178414	-0.199998	0.321295	0.281359	1.51862	0	0	-0.18541	-0.315481	0.263189	0.823367	1.26586	0	0
1.3	-3.07751	1.06017	1.51171	0.825754	0.0851051	1.03166	0.884545	-0.0672214	-0.0647218	0.63393	-0.0574652	0	0	0.385542	-0.0188676	-0.212316	0.145983	-0.203784	0	0	0.519998	0.0309106	-0.0947857	-0.185194	-0.199981	0.314649	0.28558	1.5124	0	0	-0.185817	-0.318131	0.251568	0.84711	1.27368	0	0
1.31	-3.07249	1.05751	1.51359	0.825831	0.0732218	1.03034	0.881672	-0.0655409	-0.0676544	0.553626	-0.0683151	0	0	0.373742	-0.0201048	-0.211873	0.141975	-0.202181	0	0	0.521352	0.0316084	-0.102927	-0.190278	-0.199624	0.311122	0.288201	1.50751	0	0	-0.186197	-0.321003	0.240296	0.870651	1.28101	0	0
